HIERARCHY
ROOT Hips
{
    OFFSET   0.000000   0.000000   0.000000
    CHANNELS 6 Xposition Yposition Zposition Zrotation Xrotation Yrotation
    JOINT Chest
    {
        OFFSET   0.000000   8.007240   0.000000
        CHANNELS 3 Zrotation Xrotation Yrotation
        JOINT Chest2
        {
            OFFSET   0.000000  22.077100   0.000000
            CHANNELS 3 Zrotation Xrotation Yrotation
            JOINT Neck
            {
                OFFSET   0.000000  23.254800   0.000000
                CHANNELS 3 Zrotation Xrotation Yrotation
                JOINT Head
                {
                    OFFSET   0.000000  14.370000   1.956600
                    CHANNELS 3 Zrotation Xrotation Yrotation
                    End Site
                    {
                        OFFSET   0.000000  19.566000   0.000000
                    }
                }
            }
            JOINT LeftCollar
            {
                OFFSET   3.911900  19.017000  -0.467064
                CHANNELS 3 Zrotation Xrotation Yrotation
                JOINT LeftShoulder
                {
                    OFFSET  10.383700   0.000000   0.000000
                    CHANNELS 3 Zrotation Xrotation Yrotation
                    JOINT LeftElbow
                    {
                        OFFSET  26.662100   0.001476   0.000517
                        CHANNELS 3 Zrotation Xrotation Yrotation
                        JOINT LeftWrist
                        {
                            OFFSET  28.869000  -0.000025  -0.000106
                            CHANNELS 3 Zrotation Xrotation Yrotation
                            JOINT LeftFinger0
                            {
                                OFFSET   2.044660  -2.323460   3.252850
                                CHANNELS 3 Zrotation Xrotation Yrotation
                                JOINT LeftFinger01
                                {
                                    OFFSET   3.088130   0.000000   0.000000
                                    CHANNELS 3 Zrotation Xrotation Yrotation
                                    JOINT LeftFinger02
                                    {
                                        OFFSET   2.639460   0.000000   0.000000
                                        CHANNELS 3 Zrotation Xrotation Yrotation
                                        End Site
                                        {
                                            OFFSET   2.582190   0.000000   0.000000
                                        }
                                    }
                                }
                            }
                            JOINT LeftFinger1
                            {
                                OFFSET   8.364480   0.000000   3.252850
                                CHANNELS 3 Zrotation Xrotation Yrotation
                                JOINT LeftFinger11
                                {
                                    OFFSET   4.646930   0.000000   0.000000
                                    CHANNELS 3 Zrotation Xrotation Yrotation
                                    JOINT LeftFinger12
                                    {
                                        OFFSET   2.323460   0.000000   0.000000
                                        CHANNELS 3 Zrotation Xrotation Yrotation
                                        End Site
                                        {
                                            OFFSET   2.273050   0.000000   0.000000
                                        }
                                    }
                                }
                            }
                            JOINT LeftFinger2
                            {
                                OFFSET   8.364490   0.000015   1.078090
                                CHANNELS 3 Zrotation Xrotation Yrotation
                                JOINT LeftFinger21
                                {
                                    OFFSET   5.111620   0.000000   0.000000
                                    CHANNELS 3 Zrotation Xrotation Yrotation
                                    JOINT LeftFinger22
                                    {
                                        OFFSET   2.788160   0.000016   0.000000
                                        CHANNELS 3 Zrotation Xrotation Yrotation
                                        End Site
                                        {
                                            OFFSET   2.727660   0.000000   0.000000
                                        }
                                    }
                                }
                            }
                            JOINT LeftFinger3
                            {
                                OFFSET   7.899780   0.000017  -1.078090
                                CHANNELS 3 Zrotation Xrotation Yrotation
                                JOINT LeftFinger31
                                {
                                    OFFSET   4.646930   0.000000   0.000000
                                    CHANNELS 3 Zrotation Xrotation Yrotation
                                    JOINT LeftFinger32
                                    {
                                        OFFSET   2.323470   0.000000   0.000000
                                        CHANNELS 3 Zrotation Xrotation Yrotation
                                        End Site
                                        {
                                            OFFSET   2.273050   0.000000   0.000000
                                        }
                                    }
                                }
                            }
                            JOINT LeftFinger4
                            {
                                OFFSET   7.435090   0.000000  -3.252850
                                CHANNELS 3 Zrotation Xrotation Yrotation
                                JOINT LeftFinger41
                                {
                                    OFFSET   3.717550   0.000000   0.000000
                                    CHANNELS 3 Zrotation Xrotation Yrotation
                                    JOINT LeftFinger42
                                    {
                                        OFFSET   1.858770   0.000000   0.000000
                                        CHANNELS 3 Zrotation Xrotation Yrotation
                                        End Site
                                        {
                                            OFFSET   1.818440   0.000000   0.000000
                                        }
                                    }
                                }
                            }
                        }
                    }
                }
            }
            JOINT RightCollar
            {
                OFFSET  -3.911900  19.017000  -0.467063
                CHANNELS 3 Zrotation Xrotation Yrotation
                JOINT RightShoulder
                {
                    OFFSET -10.383700   0.000019   0.000000
                    CHANNELS 3 Zrotation Xrotation Yrotation
                    JOINT RightElbow
                    {
                        OFFSET -26.662100   0.001175   0.000102
                        CHANNELS 3 Zrotation Xrotation Yrotation
                        JOINT RightWrist
                        {
                            OFFSET -28.869000   0.000016  -0.000079
                            CHANNELS 3 Zrotation Xrotation Yrotation
                            JOINT RightFinger0
                            {
                                OFFSET  -2.044660  -2.323490   3.252850
                                CHANNELS 3 Zrotation Xrotation Yrotation
                                JOINT RightFinger01
                                {
                                    OFFSET  -3.088140   0.000000   0.000000
                                    CHANNELS 3 Zrotation Xrotation Yrotation
                                    JOINT RightFinger02
                                    {
                                        OFFSET  -2.639460   0.000000   0.000000
                                        CHANNELS 3 Zrotation Xrotation Yrotation
                                        End Site
                                        {
                                            OFFSET  -2.582190   0.000000   0.000000
                                        }
                                    }
                                }
                            }
                            JOINT RightFinger1
                            {
                                OFFSET  -8.364480   0.000000   3.252850
                                CHANNELS 3 Zrotation Xrotation Yrotation
                                JOINT RightFinger11
                                {
                                    OFFSET  -4.646930   0.000000   0.000000
                                    CHANNELS 3 Zrotation Xrotation Yrotation
                                    JOINT RightFinger12
                                    {
                                        OFFSET  -2.323470   0.000000   0.000000
                                        CHANNELS 3 Zrotation Xrotation Yrotation
                                        End Site
                                        {
                                            OFFSET  -2.273050   0.000000   0.000000
                                        }
                                    }
                                }
                            }
                            JOINT RightFinger2
                            {
                                OFFSET  -8.364480   0.000000   1.078090
                                CHANNELS 3 Zrotation Xrotation Yrotation
                                JOINT RightFinger21
                                {
                                    OFFSET  -5.111620   0.000000   0.000000
                                    CHANNELS 3 Zrotation Xrotation Yrotation
                                    JOINT RightFinger22
                                    {
                                        OFFSET  -2.788160   0.000000   0.000000
                                        CHANNELS 3 Zrotation Xrotation Yrotation
                                        End Site
                                        {
                                            OFFSET  -2.727660   0.000000   0.000000
                                        }
                                    }
                                }
                            }
                            JOINT RightFinger3
                            {
                                OFFSET  -7.899780   0.000000  -1.078090
                                CHANNELS 3 Zrotation Xrotation Yrotation
                                JOINT RightFinger31
                                {
                                    OFFSET  -4.646930   0.000000   0.000000
                                    CHANNELS 3 Zrotation Xrotation Yrotation
                                    JOINT RightFinger32
                                    {
                                        OFFSET  -2.323470   0.000000   0.000000
                                        CHANNELS 3 Zrotation Xrotation Yrotation
                                        End Site
                                        {
                                            OFFSET  -2.273050   0.000000   0.000000
                                        }
                                    }
                                }
                            }
                            JOINT RightFinger4
                            {
                                OFFSET  -7.435090   0.000000  -3.252850
                                CHANNELS 3 Zrotation Xrotation Yrotation
                                JOINT RightFinger41
                                {
                                    OFFSET  -3.717550   0.000000   0.000000
                                    CHANNELS 3 Zrotation Xrotation Yrotation
                                    JOINT RightFinger42
                                    {
                                        OFFSET  -1.858770   0.000000   0.000000
                                        CHANNELS 3 Zrotation Xrotation Yrotation
                                        End Site
                                        {
                                            OFFSET  -1.818440   0.000000   0.000000
                                        }
                                    }
                                }
                            }
                        }
                    }
                }
            }
        }
    }
    JOINT LeftHip
    {
        OFFSET   9.783040   0.000000   0.000000
        CHANNELS 3 Zrotation Xrotation Yrotation
        JOINT LeftKnee
        {
            OFFSET   0.000032 -41.789100  -0.002222
            CHANNELS 3 Zrotation Xrotation Yrotation
            JOINT LeftAnkle
            {
                OFFSET   0.000087 -41.133200  -0.000135
                CHANNELS 3 Zrotation Xrotation Yrotation
                JOINT LeftToe
                {
                    OFFSET   0.000000  -6.358960  14.674500
                    CHANNELS 3 Zrotation Xrotation Yrotation
                    End Site
                    {
                        OFFSET   0.000000   0.000000   3.913200
                    }
                }
            }
        }
    }
    JOINT RightHip
    {
        OFFSET  -9.783040   0.000000   0.000000
        CHANNELS 3 Zrotation Xrotation Yrotation
        JOINT RightKnee
        {
            OFFSET   0.000047 -41.789100  -0.000896
            CHANNELS 3 Zrotation Xrotation Yrotation
            JOINT RightAnkle
            {
                OFFSET  -0.000117 -41.133300  -0.000248
                CHANNELS 3 Zrotation Xrotation Yrotation
                JOINT RightToe
                {
                    OFFSET   0.000000  -6.358970  14.674500
                    CHANNELS 3 Zrotation Xrotation Yrotation
                    End Site
                    {
                        OFFSET   0.000000   0.000000   3.913200
                    }
                }
            }
        }
    }
}
MOTION
Frames: 4
Frame Time:   0.016667
  0.869259  89.504800   4.173870  -2.477340  -6.511290   2.696360   1.755960   4.982960  -1.168770   3.634630   9.926470  -2.505120   0.701401   0.194687   0.000581   1.152630   0.390393   4.653580  -5.767100   2.990300  -0.416210 -71.253400  19.316200 -10.515800  -3.005680  -4.911160 -11.143500   9.153990  -4.149690   9.936450  41.890200  30.949200 -65.155900 -24.158400   0.000000   0.000074  -7.079210  -0.001621  -0.002525 -35.360200   6.610490  -9.220130 -29.367500  -0.002689  -0.005858 -20.557300  -0.001821  -0.002269 -28.662000   2.772240  -5.056980 -41.961100  -0.001488  -0.000105 -27.946100  -0.004837  -0.001224 -28.793500  -0.661067   1.213760 -43.157200  -0.000549   0.000724 -28.731200  -0.000530  -0.000827 -37.389900  -0.829188   1.100400 -56.096600  -0.001037   0.000576 -37.360300  -0.000936  -0.003648   6.068620  -0.478734  11.722100  68.403900  16.959500   1.513360   0.206606  -0.434240  10.513600 -14.413900 -16.080100   0.742195 -44.924300  37.262700  78.323100  19.679200   0.000000   0.000000   4.839610   0.007671  -0.001561  29.988900   3.302270   5.699720  24.670700  -0.004794   0.000923  17.269500  -0.003080   0.001054  27.758200   0.400991   0.761625  30.561000   0.005386  -0.004550  20.353700   0.005946  -0.002030  27.524800  -1.438780  -2.757490  29.483700   0.006906  -0.000199  19.636200   0.004425   0.000133  30.936700  -1.600620  -2.666890  46.462100   0.000826  -0.005511  30.943700   0.004761  -0.011031   3.271750  11.139200   3.678710   0.574631   0.416737   9.515110  -1.888100  -4.140260   1.112880  -0.000000   0.000000   0.000000   2.295060   6.124820  -4.942390   2.021940   3.677700 -11.463600  -4.232390  -2.619900  -3.517560  -0.000000   0.000000  -0.000000
  0.861937  89.504800   4.170770  -2.479180  -6.516410   2.686930   1.756210   4.989200  -1.168690   3.635400   9.938920  -2.505240   0.710643   0.191380   0.000592   1.167690   0.385503   4.653900  -5.767270   2.982210  -0.419176 -71.248300  19.330900 -10.524100  -3.007990  -4.923930 -11.140100   9.144770  -4.142510   9.936170  41.897700  30.960200 -65.170500 -24.158000   0.000000   0.000037  -7.079030  -0.001597  -0.002480 -35.360600   6.610570  -9.215850 -29.367500  -0.002688  -0.005859 -20.557300  -0.001818  -0.002274 -28.662000   2.772460  -5.057080 -41.952500  -0.001487  -0.000105 -27.940300  -0.004831  -0.001220 -28.793600  -0.661069   1.209030 -43.149900  -0.000547   0.000724 -28.731200  -0.000530  -0.000823 -37.383500  -0.829075   1.096210 -56.087000  -0.001037   0.000578 -37.353900  -0.000936  -0.003641   6.065910  -0.494633  11.722100  68.444700  16.966600   1.483680   0.148137  -0.403599  10.666800 -14.443300 -16.112100   0.737934 -44.889400  37.259500  78.322800  19.613600   0.000000  -0.000000   4.806820   0.007669  -0.001561  29.972500   3.332060   5.754320  24.659700  -0.004799   0.000924  17.261800  -0.003083   0.001053  27.742700   0.425869   0.809320  30.474400   0.005311  -0.004555  20.296000   0.005919  -0.002029  27.476300  -1.461100  -2.806550  29.291000   0.006890  -0.000156  19.507800   0.004392   0.000184  30.869500  -1.625020  -2.715180  46.360400   0.000791  -0.005498  30.876000   0.004761  -0.011075   3.280190  11.143500   3.678670   0.575292   0.421293   9.519230  -1.893150  -4.142930   1.112640  -0.000000   0.000000   0.000000   2.300820   6.126020  -4.942390   2.021940   3.677110 -11.462300  -4.236880  -2.619860  -3.511260   0.000000   0.000000   0.000000
  0.849720  89.504800   4.165210  -2.483140  -6.528880   2.669060   1.757380   5.002000  -1.168620   3.638030   9.964450  -2.505650   0.726546   0.184862   0.000603   1.193650   0.374593   4.656140  -5.767470   2.970830  -0.422140 -71.240300  19.355900 -10.542000  -3.010800  -4.940370 -11.134400   9.134990  -4.132070   9.935860  41.908900  30.972700 -65.186900 -24.157700   0.000000   0.000000  -7.078840  -0.001555  -0.002412 -35.361100   6.610650  -9.211570 -29.367600  -0.002687  -0.005862 -20.557400  -0.001808  -0.002289 -28.662000   2.772690  -5.057190 -41.940200  -0.001486  -0.000106 -27.932100  -0.004813  -0.001210 -28.793700  -0.661071   1.202620 -43.139900  -0.000545   0.000725 -28.731200  -0.000531  -0.000812 -37.373700  -0.828962   1.090540 -56.072300  -0.001037   0.000580 -37.344200  -0.000936  -0.003622   6.065100  -0.519708  11.722200  68.497500  16.974000   1.413250   0.043395  -0.322761  11.014900 -14.502600 -16.228900   0.708161 -44.843700  37.237400  78.320400  19.491500   0.000000   0.000000   4.745760   0.007664  -0.001561  29.921600   3.386960   5.860250  24.622700  -0.004810   0.000928  17.235900  -0.003088   0.001053  27.711900   0.476516   0.906644  30.305800   0.005171  -0.004565  20.183700   0.005863  -0.002029  27.383100  -1.562140  -3.013840  28.866700   0.006859  -0.000061  19.225200   0.004325   0.000235  30.793300  -1.739490  -2.915640  46.258800   0.000734  -0.005468  30.808300   0.004761  -0.011168   3.294470  11.151600   3.678600   0.575694   0.433101   9.527720  -1.901690  -4.149150   1.112410  -0.000000   0.000000  -0.000000   2.311070   6.131530  -4.942410   2.021950   3.676550 -11.458700  -4.244670  -2.619820  -3.499940   0.000000   0.000000   0.000000
  0.839690  89.504800   4.160030  -2.488240  -6.546150   2.650850   1.760850   5.016710  -1.169440   3.645420   9.993750  -2.508120   0.739507   0.177959   0.000592   1.214890   0.360744   4.668730  -5.766630   2.965740  -0.419525 -71.235600  19.377200 -10.564100  -3.010810  -4.944680 -11.129600   9.135300  -4.126260   9.935830  41.914000  30.974000 -65.187800 -24.159000   0.000033   0.000047  -7.079510  -0.001518  -0.002380 -35.358800   6.617380  -9.222870 -29.367200  -0.002689  -0.005868 -20.557100  -0.001792  -0.002312 -28.662000   2.772630  -5.056920 -41.933800  -0.001487  -0.000105 -27.928200  -0.004782  -0.001192 -28.793700  -0.660416   1.200580 -43.136300  -0.000546   0.000726 -28.731200  -0.000530  -0.000794 -37.366700  -0.829250   1.088790 -56.062000  -0.001037   0.000580 -37.337200  -0.000937  -0.003592   6.073820  -0.537128  11.726500  68.521400  16.896900   1.303850  -0.052457  -0.180618  11.491700 -14.586900 -16.410900   0.638729 -44.760300  37.158900  78.246900  19.352800   0.000000   0.000000   4.676420   0.007655  -0.001549  29.827900   3.447490   5.986740  24.551700  -0.004821   0.000939  17.186200  -0.003095   0.001062  27.679800   0.536481   1.021900  30.131900   0.004991  -0.004581  20.067800   0.005790  -0.002030  27.285300  -1.816340  -3.518320  28.259900   0.006816   0.000071  18.821100   0.004232   0.000222  30.800300  -2.030370  -3.400180  46.290600   0.000677  -0.005422  30.829500   0.004760  -0.011295   3.306190  11.156900   3.678470   0.574027   0.457563   9.537020  -1.908820  -4.160700   1.115520  -0.000000   0.000000  -0.000000   2.321080   6.142660  -4.942480   2.022030   3.676680 -11.452900  -4.251570  -2.620160  -3.489120  -0.000000   0.000000  -0.000000
